<svg xmlns="http://www.w3.org/2000/svg" viewBox="0 0 236.01 167.63"><defs><style>.cls-1{fill:#bbbab9;}.cls-2{fill:#147a88;}</style></defs><title>colorWEB</title><g id="Capa_2" data-name="Capa 2"><g id="Layer_1" data-name="Layer 1"><path class="cls-1" d="M163.91,66.32h-.16a92.34,92.34,0,0,0,10.54,7h0c-2.65,2.87-9.16,8.93-18.13,10.52,0,0-18.33,5.27-27.41-16.28h0a17.09,17.09,0,0,1-.56-8.09c1.73-9.52,12.52-16.82,21-19.73,7.77-2.66,16.17-2.72,25-.16h0c-.24,1-.37,1.94-.62,2.81l-1,3.24,1.63-.54c.09,0,8.91-2.76,8.93-11.77l0-.69-.67-.18c-12.76-3.54-23.13-2.56-28.18-1.39h0a108.62,108.62,0,0,1-1-23.75l.08-1.47-1.38.5A59.73,59.73,0,0,0,131,20.6h0a59.46,59.46,0,0,0-8.55-14.34l-.17-.21A38,38,0,0,0,116.62.48L116,0l-.6.48c-8.45,6.66-13,15.87-14.73,20.15h0A59.55,59.55,0,0,0,79.79,6.32l-1.38-.5.08,1.47a109.68,109.68,0,0,1-1,23.76h0c-5.05-1.17-15-2.25-27.83,1.29l-1.18.2v.74c0,.57.58,13.84,10.3,27.6h0c-.3.18-10.48,8.61-22.67,12.51l.75.65C56.42,91.14,71.78,94.31,80.47,94.31a24.9,24.9,0,0,0,7.75-1,31.24,31.24,0,0,0,15.56-7.14h0a24.27,24.27,0,0,0,12.1,3.33A22.81,22.81,0,0,0,127.79,86h0a31.22,31.22,0,0,0,15.64,7.22c1.89.65,21.82,6.59,51.35-19.24l.73-.64c-1.28-.47-2.52-1-3.72-1.47A68.26,68.26,0,0,0,163.91,66.32ZM142.84,16.88h0Zm-1.23,5.5a31.86,31.86,0,0,0,1.57,12h0A42,42,0,0,0,128.68,44h0c1.91-5.57,6-15.44,12.93-21.65ZM57.45,39.55h0c.8-.25,2.13-.65,3.75-1a42.38,42.38,0,0,1,14.7-.41h0c-2.11,7.38-5.49,13.36-10.07,17.82h0C63.78,54.46,60,50.38,57.45,39.55ZM90.92,81.94c-5.31,2.8-12,2.91-17.81,1.34q-.79-.21-1.56-.47A31.55,31.55,0,0,1,63,78.38a40.89,40.89,0,0,1-5.74-5c9-4.93,32.39-20.66,33.1-51h0a56.35,56.35,0,0,1,13.49,24c2.78,10,1,21-5.44,29.12A24.25,24.25,0,0,1,90.92,81.94ZM122.49,80a15.08,15.08,0,0,1-13.35.05h0c4.49-6.69,6.47-15.39,5.91-25.88a52,52,0,0,0-7.81-25.11h0c1.11-8.27,6.22-14.4,8.6-16.86h0c2.13,2.2,7.4,8.35,8.72,16.63h0a52.05,52.05,0,0,0-7.93,25.34C116.05,64.69,118,73.37,122.49,80Z"/><path class="cls-2" d="M123.33,92.37s28.22,20.49,70.09-6.63L205.25,95s-30,20.41-60.81,12.4S123.33,92.37,123.33,92.37Z"/><path class="cls-2" d="M110.16,92.37s-28.22,20.49-70.09-6.63L28.24,95s30,20.41,60.81,12.4S110.16,92.37,110.16,92.37Z"/><path d="M10.26,147.45H0v-30H12q7.41,0,11.21,4,3.71,3.85,3.71,11,0,7.34-4.66,11.23Q17.86,147.45,10.26,147.45ZM22,122.55q-3.39-3.63-10.08-3.63H1.63V146H10.4q7,0,10.92-3.43t4-10.06Q25.27,126,22,122.55Z"/><path d="M55.75,147.45l-4.39-9.64H34.54l-4.48,9.64h-1.9l14.11-30h1.67l13.56,30ZM43.13,119.67l-7.87,16.67H50.73Z"/><path d="M70.4,118.92v28.53H68.77V118.92H57v-1.46H82.11v1.46Z"/><path d="M84.14,147.45v-30h22.65v1.46H85.72v12.16H104.4v1.42H85.72V146H107v1.46Z"/><path d="M147.9,145a16.86,16.86,0,0,1-9.77,2.79q-7.55,0-11.94-3.89t-4.52-11.32q0-7.12,4.34-11.26t11.8-4.13a17.59,17.59,0,0,1,9.22,2.21,11.52,11.52,0,0,1,5.29,7.92h-1.67q-2-8.67-12.79-8.67-6.74,0-10.65,3.72T123.3,132.5q0,6.59,4,10.19t10.87,3.6a14.85,14.85,0,0,0,9-2.65,9.21,9.21,0,0,0,4.11-7.92v-1.15H138v-1.46h14.69a20,20,0,0,1,.14,2.12A11.09,11.09,0,0,1,147.9,145Z"/><path d="M157,147.45v-30h22.65v1.46H158.57v12.16h18.67v1.42H158.57V146h21.3v1.46Z"/><path d="M182.48,147.45v-30h22.65v1.46H184.07v12.16h18.67v1.42H184.07V146h21.3v1.46Z"/><path d="M233.71,147.45l-17.23-16.23-6.87,5.26v11H208v-30h1.63v17.12l23-17.12h2.58l-17.36,12.87,18.13,17.12Z"/><path d="M21.73,162.42a3.41,3.41,0,0,1,.07.66q0,2.3-3.2,3.53a17.94,17.94,0,0,1-6.4,1,20.61,20.61,0,0,1-6.75-1q-4-1.4-4-4.58t3.94-4.59a19.39,19.39,0,0,1,6.63-1,20.93,20.93,0,0,1,5.34.6q3.3.87,4.08,2.93h-.66q-1.33-3.23-8.72-3.22a18,18,0,0,0-6.25,1Q2,159.1,2,162.07t3.8,4.34a19.34,19.34,0,0,0,6.36.92,18.24,18.24,0,0,0,5.37-.76q3.56-1.08,3.56-3.29v-.55H12.35v-.31Z"/><path d="M74.32,159.35q0,2.31-4.59,2.85,4.29.45,4.29,2.66v2.66h-.65v-2.61q0-2.5-6.07-2.5H58.79v5.11h-.63V156.59h9.42Q74.32,156.59,74.32,159.35Zm-.63,0q0-2.5-6.05-2.5H58.79v5.19h8.37a15.83,15.83,0,0,0,3.9-.42Q73.69,161,73.69,159.39Z"/><path d="M130.85,162.05q0,3.14-3.86,4.58a22,22,0,0,1-13.11,0q-3.83-1.42-3.83-4.58t3.88-4.48a23.24,23.24,0,0,1,13,0Q130.85,159,130.85,162.05Zm-.63,0q0-2.93-3.65-4.22a21.48,21.48,0,0,0-12.27,0q-3.63,1.29-3.63,4.21t3.61,4.3a17.47,17.47,0,0,0,6.15,1,17.72,17.72,0,0,0,6.17-1Q130.22,165,130.22,162.05Z"/><path d="M183.31,163.49q0,2.6-3,3.56a24,24,0,0,1-10.49,0q-3.05-1-3.05-3.6v-6.87h.63v6.85q0,3.88,7.67,3.89t7.64-3.82v-6.92h.63Z"/><path d="M236,159.6q0,1.72-3,2.47a18.16,18.16,0,0,1-4.36.47h-8.11v5h-.63V156.59H229Q236,156.59,236,159.6Zm-.66,0q0-2.72-6.15-2.72h-8.62v5.34h8.64a13.8,13.8,0,0,0,3.66-.45Q235.35,161.09,235.35,159.62Z"/></g></g></svg>